<?xml version="1.0" encoding="iso-8859-1"?>
<!-- Uploaded to: SVG Repo, www.svgrepo.com, Generator: SVG Repo Mixer Tools -->
<svg version="1.1" id="Layer_1" xmlns="http://www.w3.org/2000/svg" xmlns:xlink="http://www.w3.org/1999/xlink" 
	 viewBox="0 0 512.004 512.004" xml:space="preserve">
<path style="fill:#FFAC00;" d="M145.082,463.043l177.371-177.371l31.553-59.551l63.512-63.512l-9.588-9.588
	C482.388,76.783,512.002,0,512.002,0S435.219,29.614,358.98,104.071l-9.588-9.588l-63.512,63.512l-59.551,31.553L48.959,366.919
	l-25.893-25.893L0.002,364.091L147.911,512l23.063-23.063L145.082,463.043z"/>
<path style="fill:#FFD68B;" d="M512.002,0c0,0-76.783,29.614-153.022,104.071l-9.588-9.588l-63.512,63.512l-59.551,31.553
	L48.959,366.919l-25.893-25.893L0.002,364.091l73.955,73.955L512.002,0z"/>
<polygon style="fill:#DB6D00;" points="285.88,157.995 226.33,189.549 322.453,285.672 354.007,226.122 "/>
<polygon style="fill:#FFAC00;" points="319.944,192.058 285.88,157.995 226.33,189.549 274.391,237.611 "/>
<path style="fill:#DB6D00;" d="M407.931,153.021C482.388,76.783,512.002,0,512.002,0S435.219,29.614,358.98,104.071L407.931,153.021
	z"/>
<path style="fill:#FFAC00;" d="M512.002,0c0,0-76.783,29.614-153.022,104.071l24.476,24.476L512.002,0z"/>
<rect x="-19.098" y="410.209" transform="matrix(0.7071 0.7071 -0.7071 0.7071 326.6329 64.4757)" style="fill:#DB6D00;" width="209.17" height="32.619"/>
<rect x="-3.781" y="373.232" transform="matrix(0.7071 0.7071 -0.7071 0.7071 289.6558 79.7912)" style="fill:#FFAC00;" width="104.585" height="32.619"/>
</svg>