<?xml version="1.0" encoding="iso-8859-1"?>
<!-- Uploaded to: SVG Repo, www.svgrepo.com, Generator: SVG Repo Mixer Tools -->
<svg height="800px" width="800px" version="1.1" id="Layer_1" xmlns="http://www.w3.org/2000/svg" xmlns:xlink="http://www.w3.org/1999/xlink" 
	 viewBox="0 0 512 512" xml:space="preserve">
<path style="fill:#A3E05A;" d="M437.02,74.98C388.666,26.628,324.38,0,256,0S123.333,26.628,74.981,74.98S0,187.619,0,256
	s26.628,132.667,74.981,181.02S187.62,512,256,512s132.666-26.628,181.02-74.98C485.372,388.666,512,324.38,512,256
	S485.372,123.334,437.02,74.98z"/>
<path style="fill:#6CB52D;" d="M512,256c0-68.38-26.628-132.666-74.98-181.02C388.666,26.628,324.38,0,256,0v512
	c68.38,0,132.666-26.628,181.02-74.98C485.372,388.666,512,324.38,512,256z"/>
<path style="fill:#D1E5F0;" d="M256,445.217c-104.334,0-189.217-84.883-189.217-189.217S151.666,66.783,256,66.783
	S445.217,151.666,445.217,256S360.334,445.217,256,445.217z"/>
<path style="fill:#C5DEE7;" d="M445.217,256c0-104.334-84.883-189.217-189.217-189.217v378.435
	C360.334,445.217,445.217,360.334,445.217,256z"/>
<g>
	<path style="fill:#58565C;" d="M256,440.308c-9.22,0-16.696-7.475-16.696-16.696v-34.047c0-9.22,7.475-16.696,16.696-16.696
		c9.222,0,16.696,7.475,16.696,16.696v34.047C272.696,432.833,265.22,440.308,256,440.308z"/>
	<path style="fill:#58565C;" d="M256,139.786c-9.22,0-16.696-7.475-16.696-16.696V89.043c0-9.22,7.475-16.696,16.696-16.696
		c9.222,0,16.696,7.475,16.696,16.696v34.047C272.696,132.311,265.22,139.786,256,139.786z"/>
	<path style="fill:#58565C;" d="M423.279,272.696h-34.047c-9.22,0-16.696-7.475-16.696-16.696s7.475-16.696,16.696-16.696h34.047
		c9.22,0,16.696,7.475,16.696,16.696S432.5,272.696,423.279,272.696z"/>
	<path style="fill:#58565C;" d="M122.758,272.696H88.711c-9.22,0-16.696-7.475-16.696-16.696s7.475-16.696,16.696-16.696h34.047
		c9.22,0,16.696,7.475,16.696,16.696S131.978,272.696,122.758,272.696z"/>
</g>
<path style="fill:#3E3D42;" d="M256.323,273.023c-4.273,0-8.545-1.63-11.805-4.891l-69.715-69.714c-6.52-6.519-6.52-17.091,0-23.611
	c6.52-6.519,17.092-6.519,23.611,0l57.909,57.908l47.669-47.668c6.52-6.52,17.092-6.52,23.611,0c6.52,6.519,6.52,17.091,0,23.611
	l-59.475,59.474C264.869,271.392,260.595,273.023,256.323,273.023z"/>
</svg>